<mxfile host="app.diagrams.net" agent="Mozilla/5.0 (Windows NT 10.0; Win64; x64) AppleWebKit/537.36 (KHTML, like Gecko) Chrome/128.0.0.0 Safari/537.36" version="24.7.12">
  <diagram name="Page-1" id="8vZzKOh9nQ_zO5Q1MDAe">
    <mxGraphModel dx="1838" dy="994" grid="1" gridSize="10" guides="1" tooltips="1" connect="1" arrows="1" fold="1" page="1" pageScale="1" pageWidth="1654" pageHeight="1169" math="0" shadow="0">
      <root>
        <mxCell id="0" />
        <mxCell id="1" parent="0" />
        <mxCell id="GO5ExdED6ENZEhVDL_Wq-9" style="edgeStyle=orthogonalEdgeStyle;rounded=0;orthogonalLoop=1;jettySize=auto;html=1;entryX=0.5;entryY=0;entryDx=0;entryDy=0;" edge="1" parent="1" source="GO5ExdED6ENZEhVDL_Wq-1" target="GO5ExdED6ENZEhVDL_Wq-2">
          <mxGeometry relative="1" as="geometry" />
        </mxCell>
        <mxCell id="GO5ExdED6ENZEhVDL_Wq-1" value="&lt;font style=&quot;font-size: 22px;&quot;&gt;Consumer&lt;/font&gt;" style="rounded=1;whiteSpace=wrap;html=1;fillColor=#dae8fc;strokeColor=#6c8ebf;" vertex="1" parent="1">
          <mxGeometry x="740" y="100" width="120" height="60" as="geometry" />
        </mxCell>
        <mxCell id="GO5ExdED6ENZEhVDL_Wq-5" style="edgeStyle=orthogonalEdgeStyle;rounded=0;orthogonalLoop=1;jettySize=auto;html=1;exitX=0.5;exitY=1;exitDx=0;exitDy=0;entryX=0.5;entryY=0;entryDx=0;entryDy=0;" edge="1" parent="1" source="GO5ExdED6ENZEhVDL_Wq-2" target="GO5ExdED6ENZEhVDL_Wq-4">
          <mxGeometry relative="1" as="geometry" />
        </mxCell>
        <mxCell id="GO5ExdED6ENZEhVDL_Wq-19" style="edgeStyle=orthogonalEdgeStyle;rounded=0;orthogonalLoop=1;jettySize=auto;html=1;entryX=0;entryY=0.5;entryDx=0;entryDy=0;" edge="1" parent="1" source="GO5ExdED6ENZEhVDL_Wq-2" target="GO5ExdED6ENZEhVDL_Wq-3">
          <mxGeometry relative="1" as="geometry">
            <Array as="points">
              <mxPoint x="600" y="225" />
              <mxPoint x="600" y="640" />
            </Array>
          </mxGeometry>
        </mxCell>
        <mxCell id="GO5ExdED6ENZEhVDL_Wq-2" value="&lt;font style=&quot;font-size: 22px;&quot;&gt;Purchase?&lt;/font&gt;" style="rhombus;whiteSpace=wrap;html=1;fillColor=#ffe6cc;strokeColor=#d79b00;" vertex="1" parent="1">
          <mxGeometry x="705" y="180" width="190" height="90" as="geometry" />
        </mxCell>
        <mxCell id="GO5ExdED6ENZEhVDL_Wq-21" style="edgeStyle=orthogonalEdgeStyle;rounded=0;orthogonalLoop=1;jettySize=auto;html=1;entryX=0.5;entryY=0;entryDx=0;entryDy=0;" edge="1" parent="1" source="GO5ExdED6ENZEhVDL_Wq-3" target="GO5ExdED6ENZEhVDL_Wq-20">
          <mxGeometry relative="1" as="geometry" />
        </mxCell>
        <mxCell id="GO5ExdED6ENZEhVDL_Wq-3" value="&lt;font style=&quot;font-size: 22px;&quot;&gt;Keep and discard&lt;/font&gt;" style="rounded=0;whiteSpace=wrap;html=1;" vertex="1" parent="1">
          <mxGeometry x="730" y="600" width="140" height="80" as="geometry" />
        </mxCell>
        <mxCell id="GO5ExdED6ENZEhVDL_Wq-13" style="edgeStyle=orthogonalEdgeStyle;rounded=0;orthogonalLoop=1;jettySize=auto;html=1;entryX=0.5;entryY=0;entryDx=0;entryDy=0;" edge="1" parent="1" source="GO5ExdED6ENZEhVDL_Wq-4" target="GO5ExdED6ENZEhVDL_Wq-11">
          <mxGeometry relative="1" as="geometry" />
        </mxCell>
        <mxCell id="GO5ExdED6ENZEhVDL_Wq-14" style="edgeStyle=orthogonalEdgeStyle;rounded=0;orthogonalLoop=1;jettySize=auto;html=1;entryX=0.5;entryY=0;entryDx=0;entryDy=0;" edge="1" parent="1" source="GO5ExdED6ENZEhVDL_Wq-4" target="GO5ExdED6ENZEhVDL_Wq-12">
          <mxGeometry relative="1" as="geometry" />
        </mxCell>
        <mxCell id="GO5ExdED6ENZEhVDL_Wq-4" value="&lt;div&gt;&lt;span style=&quot;font-size: 21px; background-color: initial;&quot;&gt;Purchase new smartphone?&lt;/span&gt;&lt;br&gt;&lt;/div&gt;" style="rhombus;whiteSpace=wrap;html=1;fillColor=#ffe6cc;strokeColor=#d79b00;" vertex="1" parent="1">
          <mxGeometry x="692.5" y="310" width="215" height="115" as="geometry" />
        </mxCell>
        <mxCell id="GO5ExdED6ENZEhVDL_Wq-7" value="&lt;font style=&quot;font-size: 22px;&quot;&gt;No&lt;/font&gt;" style="text;html=1;align=center;verticalAlign=middle;resizable=0;points=[];autosize=1;strokeColor=none;fillColor=none;" vertex="1" parent="1">
          <mxGeometry x="660" y="190" width="50" height="40" as="geometry" />
        </mxCell>
        <mxCell id="GO5ExdED6ENZEhVDL_Wq-8" value="&lt;font style=&quot;font-size: 22px;&quot;&gt;Yes&lt;/font&gt;" style="text;html=1;align=center;verticalAlign=middle;whiteSpace=wrap;rounded=0;" vertex="1" parent="1">
          <mxGeometry x="790" y="270" width="60" height="30" as="geometry" />
        </mxCell>
        <mxCell id="GO5ExdED6ENZEhVDL_Wq-15" style="edgeStyle=orthogonalEdgeStyle;rounded=0;orthogonalLoop=1;jettySize=auto;html=1;" edge="1" parent="1" source="GO5ExdED6ENZEhVDL_Wq-11" target="GO5ExdED6ENZEhVDL_Wq-3">
          <mxGeometry relative="1" as="geometry" />
        </mxCell>
        <mxCell id="GO5ExdED6ENZEhVDL_Wq-11" value="&lt;font style=&quot;font-size: 22px;&quot;&gt;Purchase new smartphone&lt;/font&gt;" style="rounded=0;whiteSpace=wrap;html=1;" vertex="1" parent="1">
          <mxGeometry x="710" y="470" width="180" height="80" as="geometry" />
        </mxCell>
        <mxCell id="GO5ExdED6ENZEhVDL_Wq-16" style="edgeStyle=orthogonalEdgeStyle;rounded=0;orthogonalLoop=1;jettySize=auto;html=1;exitX=0.5;exitY=1;exitDx=0;exitDy=0;entryX=1;entryY=0.5;entryDx=0;entryDy=0;" edge="1" parent="1" source="GO5ExdED6ENZEhVDL_Wq-12" target="GO5ExdED6ENZEhVDL_Wq-3">
          <mxGeometry relative="1" as="geometry" />
        </mxCell>
        <mxCell id="GO5ExdED6ENZEhVDL_Wq-12" value="&lt;font style=&quot;font-size: 22px;&quot;&gt;Purchase used smartphone&lt;/font&gt;" style="rounded=0;whiteSpace=wrap;html=1;" vertex="1" parent="1">
          <mxGeometry x="920" y="470" width="180" height="80" as="geometry" />
        </mxCell>
        <mxCell id="GO5ExdED6ENZEhVDL_Wq-17" value="&lt;font style=&quot;font-size: 22px;&quot;&gt;EoL Pathways&lt;/font&gt;" style="rounded=0;whiteSpace=wrap;html=1;" vertex="1" parent="1">
          <mxGeometry x="730" y="860" width="140" height="80" as="geometry" />
        </mxCell>
        <mxCell id="GO5ExdED6ENZEhVDL_Wq-22" style="edgeStyle=orthogonalEdgeStyle;rounded=0;orthogonalLoop=1;jettySize=auto;html=1;entryX=0.5;entryY=0;entryDx=0;entryDy=0;" edge="1" parent="1" source="GO5ExdED6ENZEhVDL_Wq-20" target="GO5ExdED6ENZEhVDL_Wq-17">
          <mxGeometry relative="1" as="geometry" />
        </mxCell>
        <mxCell id="GO5ExdED6ENZEhVDL_Wq-27" style="edgeStyle=orthogonalEdgeStyle;rounded=0;orthogonalLoop=1;jettySize=auto;html=1;entryX=1;entryY=0.5;entryDx=0;entryDy=0;" edge="1" parent="1" source="GO5ExdED6ENZEhVDL_Wq-20" target="GO5ExdED6ENZEhVDL_Wq-2">
          <mxGeometry relative="1" as="geometry">
            <Array as="points">
              <mxPoint x="1130" y="752" />
              <mxPoint x="1130" y="225" />
            </Array>
          </mxGeometry>
        </mxCell>
        <mxCell id="GO5ExdED6ENZEhVDL_Wq-20" value="&lt;div&gt;&lt;span style=&quot;font-size: 21px; background-color: initial;&quot;&gt;Discard?&lt;/span&gt;&lt;br&gt;&lt;/div&gt;" style="rhombus;whiteSpace=wrap;html=1;fillColor=#ffe6cc;strokeColor=#d79b00;" vertex="1" parent="1">
          <mxGeometry x="716.25" y="710" width="167.5" height="85" as="geometry" />
        </mxCell>
        <mxCell id="GO5ExdED6ENZEhVDL_Wq-24" value="&lt;font style=&quot;font-size: 22px;&quot;&gt;No&lt;/font&gt;" style="text;html=1;align=center;verticalAlign=middle;resizable=0;points=[];autosize=1;strokeColor=none;fillColor=none;" vertex="1" parent="1">
          <mxGeometry x="883.75" y="700" width="50" height="40" as="geometry" />
        </mxCell>
        <mxCell id="GO5ExdED6ENZEhVDL_Wq-25" value="&lt;font style=&quot;font-size: 22px;&quot;&gt;Yes&lt;/font&gt;" style="text;html=1;align=center;verticalAlign=middle;whiteSpace=wrap;rounded=0;" vertex="1" parent="1">
          <mxGeometry x="800" y="820" width="60" height="30" as="geometry" />
        </mxCell>
      </root>
    </mxGraphModel>
  </diagram>
</mxfile>
